<svg width="400" height="622" viewBox="0 0 400 622" fill="none" xmlns="http://www.w3.org/2000/svg">
<g opacity="0.4">
<g clip-path="url(#clip0_11_251)">
<rect width="400" height="622" rx="40" fill="#33404F"/>
<circle opacity="0.1" cx="23" cy="68" r="161" fill="white"/>
<circle opacity="0.1" cx="370.5" cy="28.5" r="55.5" fill="white"/>
<circle opacity="0.1" cx="296.5" cy="513.5" r="43.5" fill="white"/>
<circle opacity="0.1" cx="49" cy="510" r="169" fill="white"/>
<circle opacity="0.1" cx="415" cy="329" r="124" fill="white"/>
<circle opacity="0.1" cx="192" cy="223" r="40" fill="white"/>
<path d="M253.137 73.6953L254.168 71.8672L251.051 70.4961L254.168 69.125L253.137 67.2852L250.371 69.3594L250.746 65.9141H248.66L249.035 69.3594L246.27 67.2852L245.238 69.125L248.367 70.4961L245.238 71.8672L246.27 73.6953L249.023 71.668L248.66 75.0547H250.746L250.383 71.6797L253.137 73.6953ZM265.23 73.6953L266.262 71.8672L263.145 70.4961L266.262 69.125L265.23 67.2852L262.465 69.3594L262.84 65.9141H260.754L261.129 69.3594L258.363 67.2852L257.332 69.125L260.461 70.4961L257.332 71.8672L258.363 73.6953L261.117 71.668L260.754 75.0547H262.84L262.477 71.6797L265.23 73.6953ZM277.324 73.6953L278.355 71.8672L275.238 70.4961L278.355 69.125L277.324 67.2852L274.559 69.3594L274.934 65.9141H272.848L273.223 69.3594L270.457 67.2852L269.426 69.125L272.555 70.4961L269.426 71.8672L270.457 73.6953L273.211 71.668L272.848 75.0547H274.934L274.57 71.6797L277.324 73.6953ZM289.418 73.6953L290.449 71.8672L287.332 70.4961L290.449 69.125L289.418 67.2852L286.652 69.3594L287.027 65.9141H284.941L285.316 69.3594L282.551 67.2852L281.52 69.125L284.648 70.4961L281.52 71.8672L282.551 73.6953L285.305 71.668L284.941 75.0547H287.027L286.664 71.6797L289.418 73.6953ZM306.293 83.4219C310.043 83.4219 312.562 81.0078 312.562 77.4805C312.562 74.1641 310.289 71.8086 307.078 71.8086C305.449 71.8086 304.254 72.3828 303.504 73.3906H303.305L303.715 68.6445H311.555V66.0898H301.371L300.492 75.8164H303.234C303.855 74.7734 304.945 74.1523 306.34 74.1523C308.285 74.1523 309.645 75.5234 309.645 77.5508C309.645 79.5664 308.297 80.9023 306.316 80.9023C304.57 80.9023 303.246 79.8711 303.059 78.3125H300.223C300.363 81.2891 302.789 83.4219 306.293 83.4219ZM316.477 83H319.641L326.871 68.668V66.0898H315.105V68.6328H323.824V68.8203L316.477 83ZM335.941 83.4219C339.844 83.4219 342.516 81.4062 342.516 78.4648C342.516 76.2852 341.062 74.5742 338.859 74.1641V73.9648C340.676 73.5078 341.824 72.0664 341.824 70.25C341.824 67.5781 339.387 65.668 335.953 65.668C332.52 65.668 330.07 67.5781 330.07 70.25C330.07 72.0547 331.242 73.5195 333.047 73.9648V74.1641C330.832 74.6328 329.391 76.332 329.391 78.4766C329.391 81.4062 332.062 83.4219 335.941 83.4219ZM335.953 81.0664C333.914 81.0664 332.508 79.9062 332.508 78.2188C332.508 76.5312 333.914 75.3711 335.953 75.3711C337.98 75.3711 339.387 76.5312 339.387 78.2188C339.387 79.9062 337.992 81.0664 335.953 81.0664ZM335.953 73.0508C334.23 73.0508 333.047 72.0312 333.047 70.543C333.047 69.0312 334.219 67.9883 335.953 67.9883C337.676 67.9883 338.848 69.0312 338.848 70.543C338.848 72.0312 337.664 73.0508 335.953 73.0508ZM351.668 83.4102C355.969 83.4102 358.523 80.0469 358.523 74.3516C358.523 72.207 358.113 70.4023 357.328 69.0078C356.191 66.8398 354.234 65.668 351.762 65.668C348.082 65.668 345.48 68.1406 345.48 71.6094C345.48 74.8672 347.824 77.2344 351.047 77.2344C353.027 77.2344 354.633 76.3086 355.43 74.7031H355.465C355.465 74.7031 355.512 74.7031 355.523 74.7031C355.547 74.7031 355.629 74.7031 355.629 74.7031C355.629 78.5703 354.164 80.8789 351.691 80.8789C350.238 80.8789 349.113 80.082 348.727 78.8047H345.715C346.219 81.582 348.574 83.4102 351.668 83.4102ZM351.773 74.832C349.828 74.832 348.445 73.4492 348.445 71.5156C348.445 69.6289 349.898 68.1875 351.785 68.1875C353.672 68.1875 355.125 69.6523 355.125 71.5625C355.125 73.4492 353.707 74.832 351.773 74.832Z" fill="white"/>
<path d="M70.811 90.8401H62.55V102.265H70.811V90.8401Z" fill="white"/>
<path d="M70.811 77.735H62.55V89.84H70.811V77.735Z" fill="white"/>
<path d="M52.8425 76.735H61.45V60H45.5C42.464 60 40 62.24 40 65V66.81L52.8425 76.735Z" fill="white"/>
<path d="M71.9109 77.465V89.84H83.9999V68.125L71.9109 77.465Z" fill="white"/>
<path d="M71.9109 102.535L83.9999 111.875V90.8401H71.9109V102.535Z" fill="white"/>
<path d="M62.55 76.735H71.1575L84 66.81V65C84 62.24 81.536 60 78.5 60H62.55V76.735Z" fill="white"/>
<path d="M61.45 103.265H52.8425L40 113.19V115C40 117.76 42.464 120 45.5 120H61.45V103.265Z" fill="white"/>
<path d="M71.1575 103.265H62.55V120H78.5C81.536 120 84 117.76 84 115V113.19L71.1575 103.265Z" fill="white"/>
<path d="M52.089 102.535V90.8401H40V111.875L52.089 102.535Z" fill="white"/>
<path d="M61.4498 77.735H53.1888V89.84H61.4498V77.735Z" fill="white"/>
<path d="M61.4498 90.8401H53.1888V102.265H61.4498V90.8401Z" fill="white"/>
<path d="M52.089 77.465L40 68.125V89.84H52.089V77.465Z" fill="white"/>
<path d="M79.902 542.927L74.8374 572.648H82.9374L88.0062 542.927H79.902Z" fill="white"/>
<path d="M68.046 542.96L60.1127 563.229L59.2669 560.169C57.7023 556.481 53.2606 551.185 48.046 547.848L55.3002 572.633L63.871 572.619L76.6273 542.954L68.046 542.96Z" fill="white"/>
<path d="M56.1917 545.087C55.7208 543.277 54.3563 542.737 52.6625 542.673H40.1042L40 543.265C49.7729 545.635 56.2396 551.348 58.9229 558.217L56.1917 545.087Z" fill="white"/>
<path d="M104.423 548.625C107.073 548.583 108.994 549.163 110.485 549.763L111.217 550.106L112.312 543.665C110.708 543.063 108.194 542.417 105.056 542.417C97.0521 542.417 91.4104 546.448 91.3666 552.225C91.3146 556.494 95.3854 558.877 98.4604 560.3C101.617 561.758 102.675 562.685 102.66 563.988C102.635 565.977 100.144 566.89 97.8166 566.89C94.5729 566.89 92.85 566.442 90.1896 565.333L89.1458 564.858L88.0062 571.51C89.9021 572.342 93.4 573.056 97.0312 573.094C105.546 573.094 111.079 569.11 111.137 562.938C111.173 559.56 109.012 556.983 104.331 554.869C101.498 553.49 99.7646 552.573 99.7812 551.181C99.7812 549.946 101.252 548.625 104.423 548.625Z" fill="white"/>
<path d="M133.1 542.96H126.842C124.898 542.96 123.452 543.49 122.598 545.427L110.571 572.665H119.077C119.077 572.665 120.465 569.002 120.779 568.2C121.711 568.2 129.975 568.213 131.152 568.213C131.394 569.25 132.14 572.665 132.14 572.665H139.654L133.1 542.96ZM123.111 562.117C123.777 560.41 126.338 553.81 126.338 553.81C126.294 553.892 126.998 552.092 127.417 550.973L127.963 553.535C127.963 553.535 129.515 560.631 129.84 562.117H123.111Z" fill="white"/>
</g>
</g>
<defs>
<clipPath id="clip0_11_251">
<rect width="400" height="622" rx="40" fill="white"/>
</clipPath>
</defs>
</svg>
