<svg width="750" height="88" viewBox="0 0 750 88" fill="none" xmlns="http://www.w3.org/2000/svg">
<path d="M75.8848 49.3164C76.1191 53.0957 79.2686 55.5127 83.9561 55.5127C88.9658 55.5127 92.1006 52.9785 92.1006 48.9355C92.1006 45.7568 90.3135 43.999 85.9775 42.9883L83.6484 42.417C80.8945 41.7725 79.7812 40.9082 79.7812 39.3994C79.7812 37.4951 81.5098 36.25 84.1025 36.25C86.5635 36.25 88.2627 37.4658 88.5703 39.4141H91.7637C91.5732 35.8545 88.4385 33.3496 84.1465 33.3496C79.5322 33.3496 76.4561 35.8545 76.4561 39.6191C76.4561 42.7246 78.1992 44.5703 82.0225 45.4639L84.7471 46.123C87.5449 46.7822 88.7754 47.749 88.7754 49.3604C88.7754 51.2354 86.8418 52.5977 84.2051 52.5977C81.3779 52.5977 79.415 51.3232 79.1367 49.3164H75.8848Z" fill="#33404F"/>
<path d="M191.527 55V33.8623H187.689L180.951 49.917H180.702L173.978 33.8623H170.14V55H173.187V39.7363H173.392L179.588 54.3848H182.078L188.275 39.7363H188.48V55H191.527Z" fill="#33404F"/>
<path d="M279.307 55V36.8506H285.943V33.8623H269.376V36.8506H276.026V55H279.307Z" fill="#33404F"/>
<path d="M374.883 36.4873H375.088L379.629 52H382.72L388.433 30.8623H385.02L381.152 47.0488H380.947L376.509 30.8623H373.462L369.053 47.0488H368.848L364.966 30.8623H361.553L367.251 52H370.356L374.883 36.4873Z" fill="#33404F"/>
<path d="M473.974 55V36.8506H480.61V33.8623H464.042V36.8506H470.693V55H473.974Z" fill="#33404F"/>
<path d="M565.869 55V46.2402H574.951V43.3398H565.869V36.8506H575.786V33.8623H562.588V55H565.869Z" fill="#33404F"/>
<path d="M657.885 49.3164C658.119 53.0957 661.269 55.5127 665.956 55.5127C670.966 55.5127 674.101 52.9785 674.101 48.9355C674.101 45.7568 672.313 43.999 667.978 42.9883L665.648 42.417C662.895 41.7725 661.781 40.9082 661.781 39.3994C661.781 37.4951 663.51 36.25 666.103 36.25C668.563 36.25 670.263 37.4658 670.57 39.4141H673.764C673.573 35.8545 670.438 33.3496 666.146 33.3496C661.532 33.3496 658.456 35.8545 658.456 39.6191C658.456 42.7246 660.199 44.5703 664.022 45.4639L666.747 46.123C669.545 46.7822 670.775 47.749 670.775 49.3604C670.775 51.2354 668.842 52.5977 666.205 52.5977C663.378 52.5977 661.415 51.3232 661.137 49.3164H657.885Z" fill="#33404F"/>
</svg>
