<svg width="623" height="229" viewBox="0 0 623 229" fill="none" xmlns="http://www.w3.org/2000/svg">
<path d="M3 226.303C14.8333 182.137 56.2 109.403 127 171.803C215.5 249.803 245.5 185.803 266 139.303C286.5 92.8032 341.5 17.8032 402.5 102.303C463.5 186.803 506 166.303 530.5 122.803C555 79.3032 591.5 92.8032 621.5 102.303" stroke="#33404F" stroke-width="3" stroke-linecap="round" stroke-dasharray="10 10"/>
<path d="M1.5 227.5C9.16667 171.667 44.7 74.4 125.5 132C226.5 204 271.5 189 294.5 155C317.5 121 365 48.0001 434.5 94.0001C504 140 521.5 101.5 538 76C554.5 50.5 569.5 42 613 68" stroke="#00DDA3" stroke-width="3" stroke-linecap="round" stroke-dasharray="10 10"/>
<circle cx="340" cy="65" r="13" fill="#33404F"/>
<circle cx="567" cy="53" r="13" fill="#00DDA3"/>
<path d="M304.477 41.9922V40.0732C308.769 39.707 311.244 37.4658 311.244 33.877C311.244 30.8447 309.516 28.9844 305.839 28.0908L304.477 27.7832V21.4697C306.41 21.7041 307.729 22.9639 307.787 24.5752H310.849C310.761 21.3086 308.271 18.9941 304.477 18.6572V16.6357H302.47V18.6572C298.515 19.0234 296.112 21.2646 296.112 24.6484C296.112 27.5049 297.899 29.4678 301.166 30.3027L302.47 30.6396V37.3193C300.287 37.0703 298.881 35.8545 298.734 34.1113H295.629C295.644 37.5098 298.28 39.8096 302.47 40.0879V41.9922H304.477ZM308.124 34.2139C308.124 36.0742 306.791 37.2168 304.477 37.3486V31.0205C306.967 31.5186 308.124 32.5293 308.124 34.2139ZM299.247 24.3848C299.247 22.7881 300.595 21.5576 302.47 21.4551V27.3584C300.36 26.9336 299.247 25.8936 299.247 24.3848ZM320.751 40H324.032V18.8623H320.766L315.199 22.7881V26.1426L320.502 22.3926H320.751V40ZM331.078 40H334.521L343.72 21.8359V18.8623H329.32V21.7773H340.395V22.0117L331.078 40ZM355.731 40H358.896V35.9131H361.811V32.9834H358.896V18.8623H354.223C350.458 24.502 347.309 29.4092 345.419 32.8662V35.9131H355.731V40ZM348.568 32.8516C351.059 28.5303 353.49 24.7803 355.585 21.748H355.775V33.0566H348.568V32.8516Z" fill="#33404F"/>
<path d="M540.424 30.9922V29.0732C544.716 28.707 547.191 26.4658 547.191 22.877C547.191 19.8447 545.463 17.9844 541.786 17.0908L540.424 16.7832V10.4697C542.357 10.7041 543.676 11.9639 543.734 13.5752H546.796C546.708 10.3086 544.218 7.99414 540.424 7.65723V5.63574H538.417V7.65723C534.462 8.02344 532.06 10.2646 532.06 13.6484C532.06 16.5049 533.847 18.4678 537.113 19.3027L538.417 19.6396V26.3193C536.234 26.0703 534.828 24.8545 534.682 23.1113H531.576C531.591 26.5098 534.228 28.8096 538.417 29.0879V30.9922H540.424ZM544.071 23.2139C544.071 25.0742 542.738 26.2168 540.424 26.3486V20.0205C542.914 20.5186 544.071 21.5293 544.071 23.2139ZM535.194 13.3848C535.194 11.7881 536.542 10.5576 538.417 10.4551V16.3584C536.308 15.9336 535.194 14.8936 535.194 13.3848ZM561.356 29H564.521V24.9131H567.436V21.9834H564.521V7.8623H559.848C556.083 13.502 552.934 18.4092 551.044 21.8662V24.9131H561.356V29ZM554.193 21.8516C556.684 17.5303 559.115 13.7803 561.21 10.748H561.4V22.0566H554.193V21.8516ZM578.759 29.5127C583.314 29.5127 586.405 26.5391 586.405 22.1592C586.405 17.999 583.578 15.0693 579.564 15.0693C577.558 15.0693 576.063 15.7432 575.097 16.9883H574.848L575.404 10.792H585.175V7.8623H572.841L571.728 19.9619H574.73C575.551 18.5996 577.016 17.7939 578.832 17.7939C581.41 17.7939 583.197 19.5957 583.197 22.2471C583.197 24.8838 581.425 26.627 578.788 26.627C576.474 26.627 574.76 25.2646 574.511 23.2139H571.391C571.581 26.9199 574.555 29.5127 578.759 29.5127ZM595.429 29H598.71V7.8623H595.443L589.877 11.7881V15.1426L595.18 11.3926H595.429V29Z" fill="#00DDA3"/>
</svg>
