<svg width="181" height="63" viewBox="0 0 181 63" fill="none" xmlns="http://www.w3.org/2000/svg">
<g filter="url(#filter0_b_6_43)">
<rect width="181" height="63" rx="31.5" fill="white" fill-opacity="0.47"/>
<rect x="0.5" y="0.5" width="180" height="62" rx="31" stroke="white" stroke-opacity="0.34"/>
</g>
<path d="M68.516 19.812C68.516 18.996 68.7 18.264 69.068 17.616C69.436 16.96 69.936 16.448 70.568 16.08C71.208 15.712 71.916 15.528 72.692 15.528C73.604 15.528 74.4 15.748 75.08 16.188C75.76 16.628 76.256 17.252 76.568 18.06H75.26C75.028 17.556 74.692 17.168 74.252 16.896C73.82 16.624 73.3 16.488 72.692 16.488C72.108 16.488 71.584 16.624 71.12 16.896C70.656 17.168 70.292 17.556 70.028 18.06C69.764 18.556 69.632 19.14 69.632 19.812C69.632 20.476 69.764 21.06 70.028 21.564C70.292 22.06 70.656 22.444 71.12 22.716C71.584 22.988 72.108 23.124 72.692 23.124C73.3 23.124 73.82 22.992 74.252 22.728C74.692 22.456 75.028 22.068 75.26 21.564H76.568C76.256 22.364 75.76 22.984 75.08 23.424C74.4 23.856 73.604 24.072 72.692 24.072C71.916 24.072 71.208 23.892 70.568 23.532C69.936 23.164 69.436 22.656 69.068 22.008C68.7 21.36 68.516 20.628 68.516 19.812ZM79.2855 15.12V24H78.1935V15.12H79.2855ZM80.7387 20.688C80.7387 20.016 80.8747 19.428 81.1467 18.924C81.4187 18.412 81.7907 18.016 82.2627 17.736C82.7427 17.456 83.2747 17.316 83.8587 17.316C84.4347 17.316 84.9347 17.44 85.3587 17.688C85.7827 17.936 86.0987 18.248 86.3067 18.624V17.424H87.4107V24H86.3067V22.776C86.0907 23.16 85.7667 23.48 85.3347 23.736C84.9107 23.984 84.4147 24.108 83.8467 24.108C83.2627 24.108 82.7347 23.964 82.2627 23.676C81.7907 23.388 81.4187 22.984 81.1467 22.464C80.8747 21.944 80.7387 21.352 80.7387 20.688ZM86.3067 20.7C86.3067 20.204 86.2067 19.772 86.0067 19.404C85.8067 19.036 85.5347 18.756 85.1907 18.564C84.8547 18.364 84.4827 18.264 84.0747 18.264C83.6667 18.264 83.2947 18.36 82.9587 18.552C82.6227 18.744 82.3547 19.024 82.1547 19.392C81.9547 19.76 81.8547 20.192 81.8547 20.688C81.8547 21.192 81.9547 21.632 82.1547 22.008C82.3547 22.376 82.6227 22.66 82.9587 22.86C83.2947 23.052 83.6667 23.148 84.0747 23.148C84.4827 23.148 84.8547 23.052 85.1907 22.86C85.5347 22.66 85.8067 22.376 86.0067 22.008C86.2067 21.632 86.3067 21.196 86.3067 20.7ZM91.704 22.992L93.744 17.424H94.908L92.328 24H91.056L88.476 17.424H89.652L91.704 22.992ZM101.983 20.46C101.983 20.668 101.971 20.888 101.947 21.12H96.6906C96.7306 21.768 96.9506 22.276 97.3506 22.644C97.7586 23.004 98.2506 23.184 98.8266 23.184C99.2986 23.184 99.6906 23.076 100.003 22.86C100.323 22.636 100.547 22.34 100.675 21.972H101.851C101.675 22.604 101.323 23.12 100.795 23.52C100.267 23.912 99.6106 24.108 98.8266 24.108C98.2026 24.108 97.6426 23.968 97.1466 23.688C96.6586 23.408 96.2746 23.012 95.9946 22.5C95.7146 21.98 95.5746 21.38 95.5746 20.7C95.5746 20.02 95.7106 19.424 95.9826 18.912C96.2546 18.4 96.6346 18.008 97.1226 17.736C97.6186 17.456 98.1866 17.316 98.8266 17.316C99.4506 17.316 100.003 17.452 100.483 17.724C100.963 17.996 101.331 18.372 101.587 18.852C101.851 19.324 101.983 19.86 101.983 20.46ZM100.855 20.232C100.855 19.816 100.763 19.46 100.579 19.164C100.395 18.86 100.143 18.632 99.8226 18.48C99.5106 18.32 99.1626 18.24 98.7786 18.24C98.2266 18.24 97.7546 18.416 97.3626 18.768C96.9786 19.12 96.7586 19.608 96.7026 20.232H100.855ZM109.227 15.636C110.139 15.636 110.927 15.808 111.591 16.152C112.263 16.488 112.775 16.972 113.127 17.604C113.487 18.236 113.667 18.98 113.667 19.836C113.667 20.692 113.487 21.436 113.127 22.068C112.775 22.692 112.263 23.172 111.591 23.508C110.927 23.836 110.139 24 109.227 24H106.623V15.636H109.227ZM109.227 23.1C110.307 23.1 111.131 22.816 111.699 22.248C112.267 21.672 112.551 20.868 112.551 19.836C112.551 18.796 112.263 17.984 111.687 17.4C111.119 16.816 110.299 16.524 109.227 16.524H107.715V23.1H109.227ZM115.672 16.356C115.464 16.356 115.288 16.284 115.144 16.14C115 15.996 114.928 15.82 114.928 15.612C114.928 15.404 115 15.228 115.144 15.084C115.288 14.94 115.464 14.868 115.672 14.868C115.872 14.868 116.04 14.94 116.176 15.084C116.32 15.228 116.392 15.404 116.392 15.612C116.392 15.82 116.32 15.996 116.176 16.14C116.04 16.284 115.872 16.356 115.672 16.356ZM116.2 17.424V24H115.108V17.424H116.2ZM121.265 17.304C122.065 17.304 122.713 17.548 123.209 18.036C123.705 18.516 123.953 19.212 123.953 20.124V24H122.873V20.28C122.873 19.624 122.709 19.124 122.381 18.78C122.053 18.428 121.605 18.252 121.037 18.252C120.461 18.252 120.001 18.432 119.657 18.792C119.321 19.152 119.153 19.676 119.153 20.364V24H118.061V17.424H119.153V18.36C119.369 18.024 119.661 17.764 120.029 17.58C120.405 17.396 120.817 17.304 121.265 17.304ZM125.329 20.688C125.329 20.016 125.465 19.428 125.737 18.924C126.009 18.412 126.381 18.016 126.853 17.736C127.333 17.456 127.865 17.316 128.449 17.316C129.025 17.316 129.525 17.44 129.949 17.688C130.373 17.936 130.689 18.248 130.897 18.624V17.424H132.001V24H130.897V22.776C130.681 23.16 130.357 23.48 129.925 23.736C129.501 23.984 129.005 24.108 128.437 24.108C127.853 24.108 127.325 23.964 126.853 23.676C126.381 23.388 126.009 22.984 125.737 22.464C125.465 21.944 125.329 21.352 125.329 20.688ZM130.897 20.7C130.897 20.204 130.797 19.772 130.597 19.404C130.397 19.036 130.125 18.756 129.781 18.564C129.445 18.364 129.073 18.264 128.665 18.264C128.257 18.264 127.885 18.36 127.549 18.552C127.213 18.744 126.945 19.024 126.745 19.392C126.545 19.76 126.445 20.192 126.445 20.688C126.445 21.192 126.545 21.632 126.745 22.008C126.945 22.376 127.213 22.66 127.549 22.86C127.885 23.052 128.257 23.148 128.665 23.148C129.073 23.148 129.445 23.052 129.781 22.86C130.125 22.66 130.397 22.376 130.597 22.008C130.797 21.632 130.897 21.196 130.897 20.7ZM130.045 15.564L127.489 16.932V16.116L130.045 14.616V15.564ZM141.754 17.304C142.266 17.304 142.722 17.412 143.122 17.628C143.522 17.836 143.838 18.152 144.07 18.576C144.302 19 144.418 19.516 144.418 20.124V24H143.338V20.28C143.338 19.624 143.174 19.124 142.846 18.78C142.526 18.428 142.09 18.252 141.538 18.252C140.97 18.252 140.518 18.436 140.182 18.804C139.846 19.164 139.678 19.688 139.678 20.376V24H138.598V20.28C138.598 19.624 138.434 19.124 138.106 18.78C137.786 18.428 137.35 18.252 136.798 18.252C136.23 18.252 135.778 18.436 135.442 18.804C135.106 19.164 134.938 19.688 134.938 20.376V24H133.846V17.424H134.938V18.372C135.154 18.028 135.442 17.764 135.802 17.58C136.17 17.396 136.574 17.304 137.014 17.304C137.566 17.304 138.054 17.428 138.478 17.676C138.902 17.924 139.218 18.288 139.426 18.768C139.61 18.304 139.914 17.944 140.338 17.688C140.762 17.432 141.234 17.304 141.754 17.304ZM146.773 16.356C146.565 16.356 146.389 16.284 146.245 16.14C146.101 15.996 146.029 15.82 146.029 15.612C146.029 15.404 146.101 15.228 146.245 15.084C146.389 14.94 146.565 14.868 146.773 14.868C146.973 14.868 147.141 14.94 147.277 15.084C147.421 15.228 147.493 15.404 147.493 15.612C147.493 15.82 147.421 15.996 147.277 16.14C147.141 16.284 146.973 16.356 146.773 16.356ZM147.301 17.424V24H146.209V17.424H147.301ZM148.754 20.7C148.754 20.02 148.89 19.428 149.162 18.924C149.434 18.412 149.81 18.016 150.29 17.736C150.778 17.456 151.334 17.316 151.958 17.316C152.766 17.316 153.43 17.512 153.95 17.904C154.478 18.296 154.826 18.84 154.994 19.536H153.818C153.706 19.136 153.486 18.82 153.158 18.588C152.838 18.356 152.438 18.24 151.958 18.24C151.334 18.24 150.83 18.456 150.446 18.888C150.062 19.312 149.87 19.916 149.87 20.7C149.87 21.492 150.062 22.104 150.446 22.536C150.83 22.968 151.334 23.184 151.958 23.184C152.438 23.184 152.838 23.072 153.158 22.848C153.478 22.624 153.698 22.304 153.818 21.888H154.994C154.818 22.56 154.466 23.1 153.938 23.508C153.41 23.908 152.75 24.108 151.958 24.108C151.334 24.108 150.778 23.968 150.29 23.688C149.81 23.408 149.434 23.012 149.162 22.5C148.89 21.988 148.754 21.388 148.754 20.7ZM156.043 20.688C156.043 20.016 156.179 19.428 156.451 18.924C156.723 18.412 157.095 18.016 157.567 17.736C158.047 17.456 158.579 17.316 159.163 17.316C159.739 17.316 160.239 17.44 160.663 17.688C161.087 17.936 161.403 18.248 161.611 18.624V17.424H162.715V24H161.611V22.776C161.395 23.16 161.071 23.48 160.639 23.736C160.215 23.984 159.719 24.108 159.151 24.108C158.567 24.108 158.039 23.964 157.567 23.676C157.095 23.388 156.723 22.984 156.451 22.464C156.179 21.944 156.043 21.352 156.043 20.688ZM161.611 20.7C161.611 20.204 161.511 19.772 161.311 19.404C161.111 19.036 160.839 18.756 160.495 18.564C160.159 18.364 159.787 18.264 159.379 18.264C158.971 18.264 158.599 18.36 158.263 18.552C157.927 18.744 157.659 19.024 157.459 19.392C157.259 19.76 157.159 20.192 157.159 20.688C157.159 21.192 157.259 21.632 157.459 22.008C157.659 22.376 157.927 22.66 158.263 22.86C158.599 23.052 158.971 23.148 159.379 23.148C159.787 23.148 160.159 23.052 160.495 22.86C160.839 22.66 161.111 22.376 161.311 22.008C161.511 21.632 161.611 21.196 161.611 20.7Z" fill="black"/>
<path d="M75.9775 37.408C76.0308 36.3413 76.4042 35.52 77.0975 34.944C77.8015 34.3573 78.7242 34.064 79.8655 34.064C80.6442 34.064 81.3108 34.2027 81.8655 34.48C82.4202 34.7467 82.8362 35.1147 83.1135 35.584C83.4015 36.0427 83.5455 36.5653 83.5455 37.152C83.5455 37.824 83.3695 38.3947 83.0175 38.864C82.6762 39.3227 82.2655 39.632 81.7855 39.792V39.856C82.4042 40.048 82.8842 40.3893 83.2255 40.88C83.5775 41.3707 83.7535 42 83.7535 42.768C83.7535 43.408 83.6042 43.9787 83.3055 44.48C83.0175 44.9813 82.5855 45.376 82.0095 45.664C81.4442 45.9413 80.7615 46.08 79.9615 46.08C78.7562 46.08 77.7748 45.776 77.0175 45.168C76.2602 44.56 75.8602 43.664 75.8175 42.48H77.9935C78.0148 43.0027 78.1908 43.424 78.5215 43.744C78.8628 44.0533 79.3268 44.208 79.9135 44.208C80.4575 44.208 80.8735 44.0587 81.1615 43.76C81.4602 43.4507 81.6095 43.056 81.6095 42.576C81.6095 41.936 81.4068 41.4773 81.0015 41.2C80.5962 40.9227 79.9668 40.784 79.1135 40.784H78.6495V38.944H79.1135C80.6282 38.944 81.3855 38.4373 81.3855 37.424C81.3855 36.9653 81.2468 36.608 80.9695 36.352C80.7028 36.096 80.3135 35.968 79.8015 35.968C79.3002 35.968 78.9108 36.1067 78.6335 36.384C78.3668 36.6507 78.2122 36.992 78.1695 37.408H75.9775ZM90.0401 43.472C91.0641 42.6187 91.8801 41.9093 92.4881 41.344C93.0961 40.768 93.6028 40.1707 94.0081 39.552C94.4135 38.9333 94.6161 38.3253 94.6161 37.728C94.6161 37.184 94.4881 36.7573 94.2321 36.448C93.9761 36.1387 93.5815 35.984 93.0481 35.984C92.5148 35.984 92.1041 36.1653 91.8161 36.528C91.5281 36.88 91.3788 37.3653 91.3681 37.984H89.1921C89.2348 36.704 89.6135 35.7333 90.3281 35.072C91.0535 34.4107 91.9708 34.08 93.0801 34.08C94.2961 34.08 95.2295 34.4053 95.8801 35.056C96.5308 35.696 96.8561 36.544 96.8561 37.6C96.8561 38.432 96.6321 39.2267 96.1841 39.984C95.7361 40.7413 95.2241 41.4027 94.6481 41.968C94.0721 42.5227 93.3201 43.1947 92.3921 43.984H97.1121V45.84H89.2081V44.176L90.0401 43.472ZM102.064 36.4V34.336H105.92V46H103.616V36.4H102.064ZM126.487 36.032L122.231 46H119.959L124.247 36.288H118.775V34.368H126.487V36.032ZM133.593 39.824C132.526 39.2693 131.993 38.4107 131.993 37.248C131.993 36.672 132.137 36.1493 132.425 35.68C132.724 35.2 133.166 34.8213 133.753 34.544C134.35 34.256 135.076 34.112 135.929 34.112C136.782 34.112 137.502 34.256 138.089 34.544C138.686 34.8213 139.129 35.2 139.417 35.68C139.716 36.1493 139.865 36.672 139.865 37.248C139.865 37.8347 139.721 38.352 139.433 38.8C139.145 39.2373 138.761 39.5787 138.281 39.824C138.868 40.08 139.326 40.4533 139.657 40.944C139.988 41.4347 140.153 42.016 140.153 42.688C140.153 43.4133 139.966 44.048 139.593 44.592C139.23 45.1253 138.729 45.536 138.089 45.824C137.449 46.112 136.729 46.256 135.929 46.256C135.129 46.256 134.409 46.112 133.769 45.824C133.14 45.536 132.638 45.1253 132.265 44.592C131.902 44.048 131.721 43.4133 131.721 42.688C131.721 42.016 131.886 41.4347 132.217 40.944C132.548 40.4427 133.006 40.0693 133.593 39.824ZM137.689 37.568C137.689 37.0453 137.529 36.64 137.209 36.352C136.9 36.064 136.473 35.92 135.929 35.92C135.396 35.92 134.969 36.064 134.649 36.352C134.34 36.64 134.185 37.0507 134.185 37.584C134.185 38.064 134.345 38.448 134.665 38.736C134.996 39.024 135.417 39.168 135.929 39.168C136.441 39.168 136.862 39.024 137.193 38.736C137.524 38.4373 137.689 38.048 137.689 37.568ZM135.929 40.8C135.321 40.8 134.825 40.9547 134.441 41.264C134.068 41.5733 133.881 42.016 133.881 42.592C133.881 43.1253 134.062 43.5627 134.425 43.904C134.798 44.2347 135.3 44.4 135.929 44.4C136.558 44.4 137.054 44.2293 137.417 43.888C137.78 43.5467 137.961 43.1147 137.961 42.592C137.961 42.0267 137.774 41.5893 137.401 41.28C137.028 40.96 136.537 40.8 135.929 40.8ZM148.327 42.72C148.412 43.1893 148.604 43.552 148.903 43.808C149.212 44.0533 149.623 44.176 150.135 44.176C150.796 44.176 151.276 43.904 151.575 43.36C151.874 42.8053 152.023 41.8773 152.023 40.576C151.778 40.9173 151.431 41.184 150.983 41.376C150.546 41.568 150.071 41.664 149.559 41.664C148.876 41.664 148.258 41.5253 147.703 41.248C147.159 40.96 146.727 40.5387 146.407 39.984C146.087 39.4187 145.927 38.736 145.927 37.936C145.927 36.752 146.279 35.8133 146.983 35.12C147.687 34.416 148.647 34.064 149.863 34.064C151.378 34.064 152.444 34.5493 153.063 35.52C153.692 36.4907 154.007 37.952 154.007 39.904C154.007 41.2907 153.884 42.4267 153.639 43.312C153.404 44.1973 152.994 44.8693 152.407 45.328C151.831 45.7867 151.042 46.016 150.039 46.016C149.25 46.016 148.578 45.8667 148.023 45.568C147.468 45.2587 147.042 44.8587 146.743 44.368C146.455 43.8667 146.29 43.3173 146.247 42.72H148.327ZM150.023 39.84C150.578 39.84 151.015 39.6693 151.335 39.328C151.655 38.9867 151.815 38.528 151.815 37.952C151.815 37.3227 151.644 36.8373 151.303 36.496C150.972 36.144 150.519 35.968 149.943 35.968C149.367 35.968 148.908 36.1493 148.567 36.512C148.236 36.864 148.071 37.3333 148.071 37.92C148.071 38.4853 148.231 38.9493 148.551 39.312C148.882 39.664 149.372 39.84 150.023 39.84Z" fill="black"/>
<circle cx="35.5" cy="31.5" r="21.5" fill="#D9D9D9" fill-opacity="0.25" stroke="#FCD925" stroke-width="4"/>
<path d="M35 40.3333C36.2377 40.3333 37.4247 39.8416 38.2998 38.9665C39.175 38.0913 39.6667 36.9043 39.6667 35.6666C39.6667 34.429 39.175 33.242 38.2998 32.3668C37.4247 31.4916 36.2377 31 35 31C33.7623 31 32.5753 31.4916 31.7002 32.3668C30.825 33.242 30.3333 34.429 30.3333 35.6666C30.3333 36.9043 30.825 38.0913 31.7002 38.9665C32.5753 39.8416 33.7623 40.3333 35 40.3333ZM30.3333 30.4493V24C30.3333 22.7623 30.825 21.5753 31.7002 20.7001C32.5753 19.825 33.7623 19.3333 35 19.3333C36.2377 19.3333 37.4247 19.825 38.2998 20.7001C39.175 21.5753 39.6667 22.7623 39.6667 24V25.1666C39.6667 25.4761 39.5437 25.7728 39.325 25.9916C39.1062 26.2104 38.8094 26.3333 38.5 26.3333C38.1906 26.3333 37.8938 26.2104 37.675 25.9916C37.4562 25.7728 37.3333 25.4761 37.3333 25.1666V24C37.3333 23.3811 37.0875 22.7876 36.6499 22.3501C36.2123 21.9125 35.6188 21.6666 35 21.6666C34.3812 21.6666 33.7877 21.9125 33.3501 22.3501C32.9125 22.7876 32.6667 23.3811 32.6667 24V29.0645C34.3055 28.4843 36.1017 28.5347 37.7054 29.2059C39.3091 29.8772 40.6057 31.1212 41.3427 32.6958C42.0797 34.2704 42.2043 36.0629 41.6924 37.7244C41.1805 39.3859 40.0686 40.7974 38.5732 41.6841C37.0778 42.5709 35.3059 42.8695 33.6025 42.5217C31.8991 42.1739 30.3861 41.2047 29.358 39.8028C28.3298 38.4008 27.8602 36.6664 28.0405 34.9372C28.2208 33.2081 29.0381 31.6079 30.3333 30.4481V30.4493ZM35 38C34.3812 38 33.7877 37.7541 33.3501 37.3166C32.9125 36.879 32.6667 36.2855 32.6667 35.6666C32.6667 35.0478 32.9125 34.4543 33.3501 34.0167C33.7877 33.5791 34.3812 33.3333 35 33.3333C35.6188 33.3333 36.2123 33.5791 36.6499 34.0167C37.0875 34.4543 37.3333 35.0478 37.3333 35.6666C37.3333 36.2855 37.0875 36.879 36.6499 37.3166C36.2123 37.7541 35.6188 38 35 38Z" fill="black"/>
<defs>
<filter id="filter0_b_6_43" x="-6" y="-6" width="193" height="75" filterUnits="userSpaceOnUse" color-interpolation-filters="sRGB">
<feFlood flood-opacity="0" result="BackgroundImageFix"/>
<feGaussianBlur in="BackgroundImageFix" stdDeviation="3"/>
<feComposite in2="SourceAlpha" operator="in" result="effect1_backgroundBlur_6_43"/>
<feBlend mode="normal" in="SourceGraphic" in2="effect1_backgroundBlur_6_43" result="shape"/>
</filter>
</defs>
</svg>
