<svg width="400" height="622" viewBox="0 0 400 622" fill="none" xmlns="http://www.w3.org/2000/svg">
<g opacity="0.4">
<g clip-path="url(#clip0_11_251)">
<rect width="400" height="622" rx="40" fill="#A40D3F"/>
<circle opacity="0.1" cx="23" cy="68" r="161" fill="white"/>
<circle opacity="0.1" cx="370.5" cy="28.5" r="55.5" fill="white"/>
<circle opacity="0.1" cx="296.5" cy="513.5" r="43.5" fill="white"/>
<circle opacity="0.1" cx="49" cy="510" r="169" fill="white"/>
<circle opacity="0.1" cx="415" cy="329" r="124" fill="white"/>
<circle opacity="0.1" cx="192" cy="223" r="40" fill="white"/>
<path d="M253.137 73.6953L254.168 71.8672L251.051 70.4961L254.168 69.125L253.137 67.2852L250.371 69.3594L250.746 65.9141H248.66L249.035 69.3594L246.27 67.2852L245.238 69.125L248.367 70.4961L245.238 71.8672L246.27 73.6953L249.023 71.668L248.66 75.0547H250.746L250.383 71.6797L253.137 73.6953ZM265.23 73.6953L266.262 71.8672L263.145 70.4961L266.262 69.125L265.23 67.2852L262.465 69.3594L262.84 65.9141H260.754L261.129 69.3594L258.363 67.2852L257.332 69.125L260.461 70.4961L257.332 71.8672L258.363 73.6953L261.117 71.668L260.754 75.0547H262.84L262.477 71.6797L265.23 73.6953ZM277.324 73.6953L278.355 71.8672L275.238 70.4961L278.355 69.125L277.324 67.2852L274.559 69.3594L274.934 65.9141H272.848L273.223 69.3594L270.457 67.2852L269.426 69.125L272.555 70.4961L269.426 71.8672L270.457 73.6953L273.211 71.668L272.848 75.0547H274.934L274.57 71.6797L277.324 73.6953ZM289.418 73.6953L290.449 71.8672L287.332 70.4961L290.449 69.125L289.418 67.2852L286.652 69.3594L287.027 65.9141H284.941L285.316 69.3594L282.551 67.2852L281.52 69.125L284.648 70.4961L281.52 71.8672L282.551 73.6953L285.305 71.668L284.941 75.0547H287.027L286.664 71.6797L289.418 73.6953ZM306.293 83.4219C310.043 83.4219 312.562 81.0078 312.562 77.4805C312.562 74.1641 310.289 71.8086 307.078 71.8086C305.449 71.8086 304.254 72.3828 303.504 73.3906H303.305L303.715 68.6445H311.555V66.0898H301.371L300.492 75.8164H303.234C303.855 74.7734 304.945 74.1523 306.34 74.1523C308.285 74.1523 309.645 75.5234 309.645 77.5508C309.645 79.5664 308.297 80.9023 306.316 80.9023C304.57 80.9023 303.246 79.8711 303.059 78.3125H300.223C300.363 81.2891 302.789 83.4219 306.293 83.4219ZM316.477 83H319.641L326.871 68.668V66.0898H315.105V68.6328H323.824V68.8203L316.477 83ZM335.941 83.4219C339.844 83.4219 342.516 81.4062 342.516 78.4648C342.516 76.2852 341.062 74.5742 338.859 74.1641V73.9648C340.676 73.5078 341.824 72.0664 341.824 70.25C341.824 67.5781 339.387 65.668 335.953 65.668C332.52 65.668 330.07 67.5781 330.07 70.25C330.07 72.0547 331.242 73.5195 333.047 73.9648V74.1641C330.832 74.6328 329.391 76.332 329.391 78.4766C329.391 81.4062 332.062 83.4219 335.941 83.4219ZM335.953 81.0664C333.914 81.0664 332.508 79.9062 332.508 78.2188C332.508 76.5312 333.914 75.3711 335.953 75.3711C337.98 75.3711 339.387 76.5312 339.387 78.2188C339.387 79.9062 337.992 81.0664 335.953 81.0664ZM335.953 73.0508C334.23 73.0508 333.047 72.0312 333.047 70.543C333.047 69.0312 334.219 67.9883 335.953 67.9883C337.676 67.9883 338.848 69.0312 338.848 70.543C338.848 72.0312 337.664 73.0508 335.953 73.0508ZM351.668 83.4102C355.969 83.4102 358.523 80.0469 358.523 74.3516C358.523 72.207 358.113 70.4023 357.328 69.0078C356.191 66.8398 354.234 65.668 351.762 65.668C348.082 65.668 345.48 68.1406 345.48 71.6094C345.48 74.8672 347.824 77.2344 351.047 77.2344C353.027 77.2344 354.633 76.3086 355.43 74.7031H355.465C355.465 74.7031 355.512 74.7031 355.523 74.7031C355.547 74.7031 355.629 74.7031 355.629 74.7031C355.629 78.5703 354.164 80.8789 351.691 80.8789C350.238 80.8789 349.113 80.082 348.727 78.8047H345.715C346.219 81.582 348.574 83.4102 351.668 83.4102ZM351.773 74.832C349.828 74.832 348.445 73.4492 348.445 71.5156C348.445 69.6289 349.898 68.1875 351.785 68.1875C353.672 68.1875 355.125 69.6523 355.125 71.5625C355.125 73.4492 353.707 74.832 351.773 74.832Z" fill="white"/>
<path d="M89.7812 322.373V320.141C95.2832 319.684 98.3945 316.906 98.3945 312.424C98.3945 308.627 96.1797 306.289 91.6621 305.322L89.7812 304.936V298.678C91.627 298.941 92.9453 300.26 92.998 301.859H97.9023C97.832 297.799 94.668 294.934 89.7812 294.477V292.086H87.3203V294.477C82.082 294.898 78.9883 297.676 78.9883 302C78.9883 305.674 81.2559 308.1 85.4746 309.084L87.3203 309.523V316.062C85.123 315.834 83.6289 314.533 83.5059 312.793H78.4785C78.4961 317.082 81.8184 319.859 87.3203 320.176V322.373H89.7812ZM93.4023 313.021C93.4023 314.797 92.0664 315.939 89.7812 316.08V309.963C92.2422 310.42 93.4023 311.404 93.4023 313.021ZM84.0859 301.508C84.0859 299.943 85.4219 298.766 87.3203 298.66V304.426C85.1934 304.004 84.0859 302.984 84.0859 301.508Z" fill="white"/>
<path d="M127.617 318.867C135.375 318.867 140.555 313.969 140.555 306.797C140.555 300.164 136.008 295.453 129.586 295.453C126.234 295.453 123.844 296.695 122.414 298.758H121.992L122.742 290.062H138.516V284.18H117.258L115.57 303.797H121.898C123.07 301.898 125.062 300.75 127.688 300.75C131.273 300.75 133.805 303.234 133.805 306.961C133.805 310.641 131.297 313.078 127.664 313.078C124.453 313.078 121.969 311.203 121.57 308.391H115.031C115.242 314.438 120.258 318.867 127.617 318.867ZM159.938 318.867C168.07 318.867 173.625 314.836 173.625 308.906C173.625 304.594 170.648 301.172 166.148 300.328V299.906C169.852 299.039 172.242 296.156 172.242 292.547C172.242 287.156 167.133 283.312 159.961 283.312C152.766 283.312 147.656 287.156 147.656 292.547C147.656 296.133 150.07 299.062 153.75 299.906V300.328C149.227 301.336 146.297 304.734 146.297 308.977C146.297 314.859 151.805 318.867 159.938 318.867ZM159.938 313.523C156.234 313.523 153.656 311.391 153.656 308.32C153.656 305.227 156.234 303.094 159.938 303.094C163.664 303.094 166.242 305.227 166.242 308.32C166.242 311.391 163.664 313.523 159.938 313.523ZM159.938 297.867C156.82 297.867 154.641 295.945 154.641 293.227C154.641 290.484 156.797 288.562 159.938 288.562C163.078 288.562 165.258 290.484 165.258 293.227C165.258 295.945 163.078 297.867 159.938 297.867ZM195.844 318H202.594V312.094H207.023V306.211H202.594V284.18H192.68C186.75 293.109 182.344 300.094 179.297 305.836V312.094H195.844V318ZM185.648 306.047C189.516 299.039 192.539 294.305 195.633 289.688H196.008V306.422H185.648V306.047ZM216.703 327.164L220.969 312.516H214.289L212.133 327.164H216.703ZM244.031 318H250.781V312.094H255.211V306.211H250.781V284.18H240.867C234.938 293.109 230.531 300.094 227.484 305.836V312.094H244.031V318ZM233.836 306.047C237.703 299.039 240.727 294.305 243.82 289.688H244.195V306.422H233.836V306.047ZM274.781 318.867C282.352 318.867 287.719 313.875 287.719 306.844C287.719 300.375 283.008 295.617 276.586 295.617C272.648 295.617 269.508 297.422 267.961 300.609H267.539C267.398 293.602 270.211 289.125 274.852 289.125C277.5 289.125 279.609 290.531 280.266 292.758H287.273C286.312 287.109 281.32 283.312 274.898 283.312C266.086 283.312 260.789 290.109 260.789 301.336C260.789 305.977 261.75 309.867 263.625 312.75C265.945 316.711 269.883 318.867 274.781 318.867ZM274.711 313.055C271.242 313.055 268.594 310.43 268.594 306.984C268.594 303.609 271.195 301.078 274.734 301.078C278.273 301.078 280.852 303.609 280.852 307.055C280.852 310.453 278.18 313.055 274.711 313.055ZM307.641 318.867C315.211 318.867 320.578 313.875 320.578 306.844C320.578 300.375 315.867 295.617 309.445 295.617C305.508 295.617 302.367 297.422 300.82 300.609H300.398C300.258 293.602 303.07 289.125 307.711 289.125C310.359 289.125 312.469 290.531 313.125 292.758H320.133C319.172 287.109 314.18 283.312 307.758 283.312C298.945 283.312 293.648 290.109 293.648 301.336C293.648 305.977 294.609 309.867 296.484 312.75C298.805 316.711 302.742 318.867 307.641 318.867ZM307.57 313.055C304.102 313.055 301.453 310.43 301.453 306.984C301.453 303.609 304.055 301.078 307.594 301.078C311.133 301.078 313.711 303.609 313.711 307.055C313.711 310.453 311.039 313.055 307.57 313.055Z" fill="white"/>
<path d="M70.811 90.8401H62.55V102.265H70.811V90.8401Z" fill="white"/>
<path d="M70.811 77.735H62.55V89.84H70.811V77.735Z" fill="white"/>
<path d="M52.8425 76.735H61.45V60H45.5C42.464 60 40 62.24 40 65V66.81L52.8425 76.735Z" fill="white"/>
<path d="M71.9109 77.465V89.84H83.9999V68.125L71.9109 77.465Z" fill="white"/>
<path d="M71.9109 102.535L83.9999 111.875V90.8401H71.9109V102.535Z" fill="white"/>
<path d="M62.55 76.735H71.1575L84 66.81V65C84 62.24 81.536 60 78.5 60H62.55V76.735Z" fill="white"/>
<path d="M61.45 103.265H52.8425L40 113.19V115C40 117.76 42.464 120 45.5 120H61.45V103.265Z" fill="white"/>
<path d="M71.1575 103.265H62.55V120H78.5C81.536 120 84 117.76 84 115V113.19L71.1575 103.265Z" fill="white"/>
<path d="M52.089 102.535V90.8401H40V111.875L52.089 102.535Z" fill="white"/>
<path d="M61.4498 77.735H53.1888V89.84H61.4498V77.735Z" fill="white"/>
<path d="M61.4498 90.8401H53.1888V102.265H61.4498V90.8401Z" fill="white"/>
<path d="M52.089 77.465L40 68.125V89.84H52.089V77.465Z" fill="white"/>
<path d="M79.902 542.927L74.8374 572.648H82.9374L88.0062 542.927H79.902Z" fill="white"/>
<path d="M68.046 542.96L60.1127 563.229L59.2669 560.169C57.7023 556.481 53.2606 551.185 48.046 547.848L55.3002 572.633L63.871 572.619L76.6273 542.954L68.046 542.96Z" fill="white"/>
<path d="M56.1917 545.087C55.7208 543.277 54.3563 542.737 52.6625 542.673H40.1042L40 543.265C49.7729 545.635 56.2396 551.348 58.9229 558.217L56.1917 545.087Z" fill="white"/>
<path d="M104.423 548.625C107.073 548.583 108.994 549.162 110.485 549.762L111.217 550.106L112.312 543.665C110.708 543.062 108.194 542.417 105.056 542.417C97.0521 542.417 91.4104 546.448 91.3666 552.225C91.3146 556.494 95.3854 558.877 98.4604 560.3C101.617 561.758 102.675 562.685 102.66 563.987C102.635 565.977 100.144 566.89 97.8166 566.89C94.5729 566.89 92.85 566.442 90.1896 565.333L89.1458 564.858L88.0062 571.51C89.9021 572.342 93.4 573.056 97.0312 573.094C105.546 573.094 111.079 569.11 111.137 562.937C111.173 559.56 109.012 556.983 104.331 554.869C101.498 553.49 99.7646 552.573 99.7812 551.181C99.7812 549.946 101.252 548.625 104.423 548.625Z" fill="white"/>
<path d="M133.1 542.96H126.842C124.898 542.96 123.452 543.489 122.598 545.427L110.571 572.664H119.077C119.077 572.664 120.465 569.002 120.779 568.2C121.711 568.2 129.975 568.212 131.152 568.212C131.394 569.25 132.14 572.664 132.14 572.664H139.654L133.1 542.96ZM123.111 562.117C123.777 560.41 126.338 553.81 126.338 553.81C126.294 553.892 126.998 552.092 127.417 550.973L127.963 553.535C127.963 553.535 129.515 560.631 129.84 562.117H123.111Z" fill="white"/>
</g>
</g>
<defs>
<clipPath id="clip0_11_251">
<rect width="400" height="622" rx="40" fill="white"/>
</clipPath>
</defs>
</svg>
