<svg width="400" height="622" viewBox="0 0 400 622" fill="none" xmlns="http://www.w3.org/2000/svg">
<g clip-path="url(#clip0_11_208)">
<rect width="400" height="622" rx="40" fill="#00C289"/>
<circle opacity="0.1" cx="314" cy="55" r="161" fill="white"/>
<circle opacity="0.1" cx="5.5" cy="23.5" r="55.5" fill="white"/>
<circle opacity="0.1" cy="272" r="114" fill="white"/>
<circle opacity="0.1" cx="116.5" cy="471.5" r="67.5" fill="white"/>
<circle opacity="0.1" cx="418" cy="535" r="124" fill="white"/>
<circle opacity="0.1" cx="261" cy="333" r="40" fill="white"/>
<path d="M257.262 73.6953L258.293 71.8672L255.176 70.4961L258.293 69.125L257.262 67.2852L254.496 69.3594L254.871 65.9141H252.785L253.16 69.3594L250.395 67.2852L249.363 69.125L252.492 70.4961L249.363 71.8672L250.395 73.6953L253.148 71.668L252.785 75.0547H254.871L254.508 71.6797L257.262 73.6953ZM269.355 73.6953L270.387 71.8672L267.27 70.4961L270.387 69.125L269.355 67.2852L266.59 69.3594L266.965 65.9141H264.879L265.254 69.3594L262.488 67.2852L261.457 69.125L264.586 70.4961L261.457 71.8672L262.488 73.6953L265.242 71.668L264.879 75.0547H266.965L266.602 71.6797L269.355 73.6953ZM281.449 73.6953L282.48 71.8672L279.363 70.4961L282.48 69.125L281.449 67.2852L278.684 69.3594L279.059 65.9141H276.973L277.348 69.3594L274.582 67.2852L273.551 69.125L276.68 70.4961L273.551 71.8672L274.582 73.6953L277.336 71.668L276.973 75.0547H279.059L278.695 71.6797L281.449 73.6953ZM293.543 73.6953L294.574 71.8672L291.457 70.4961L294.574 69.125L293.543 67.2852L290.777 69.3594L291.152 65.9141H289.066L289.441 69.3594L286.676 67.2852L285.645 69.125L288.773 70.4961L285.645 71.8672L286.676 73.6953L289.43 71.668L289.066 75.0547H291.152L290.789 71.6797L293.543 73.6953ZM310.793 83.4102C314.473 83.4102 317.074 80.9492 317.074 77.4688C317.074 74.2227 314.719 71.8438 311.508 71.8438C309.516 71.8438 307.922 72.7695 307.125 74.375H306.926C306.926 70.5078 308.391 68.1992 310.863 68.1992C312.316 68.1992 313.441 68.9961 313.816 70.2734H316.84C316.336 67.4961 313.969 65.668 310.887 65.668C306.574 65.668 304.031 69.043 304.031 74.7266C304.031 76.8828 304.441 78.6875 305.227 80.0703C306.352 82.2383 308.309 83.4102 310.793 83.4102ZM310.758 80.8906C308.871 80.8906 307.43 79.4375 307.43 77.5156C307.43 75.6289 308.848 74.2461 310.781 74.2461C312.715 74.2461 314.109 75.6289 314.109 77.5625C314.109 79.4492 312.656 80.8906 310.758 80.8906ZM324.41 83H327.434V66.0898H324.422L320.004 69.1836V72.0898L324.211 69.1367H324.41V83ZM332.977 83H336.141L343.371 68.668V66.0898H331.605V68.6328H340.324V68.8203L332.977 83ZM352.324 83.4219C356.074 83.4219 358.594 81.0078 358.594 77.4805C358.594 74.1641 356.32 71.8086 353.109 71.8086C351.48 71.8086 350.285 72.3828 349.535 73.3906H349.336L349.746 68.6445H357.586V66.0898H347.402L346.523 75.8164H349.266C349.887 74.7734 350.977 74.1523 352.371 74.1523C354.316 74.1523 355.676 75.5234 355.676 77.5508C355.676 79.5664 354.328 80.9023 352.348 80.9023C350.602 80.9023 349.277 79.8711 349.09 78.3125H346.254C346.395 81.2891 348.82 83.4219 352.324 83.4219Z" fill="white"/>
<path d="M79.2496 578.686C75.4296 581.759 70.5791 583.594 65.2971 583.594C52.9839 583.594 43 573.61 43 561.297C43 548.984 52.9839 539 65.2971 539C71.1207 539 76.417 541.234 80.3856 544.886C75.3002 548.969 72.0457 555.244 72.0457 562.275C72.0457 568.769 74.8209 574.612 79.2496 578.686Z" fill="white"/>
<path d="M87.5943 561.297C87.5943 568.328 84.3398 574.603 79.2496 578.686C74.8209 574.612 72.0457 568.769 72.0457 562.275C72.0457 555.244 75.3002 548.969 80.3856 544.886C84.8191 548.96 87.5943 554.803 87.5943 561.297Z" fill="#33404F"/>
<path d="M116.64 562.275C116.64 574.588 106.656 584.572 94.3429 584.572C88.5193 584.572 83.223 582.338 79.2496 578.686C84.3398 574.603 87.5943 568.328 87.5943 561.297C87.5943 554.803 84.8191 548.96 80.3856 544.886C84.2056 541.813 89.061 539.978 94.3429 539.978C106.656 539.978 116.64 549.962 116.64 562.275Z" fill="white"/>
<path d="M116.781 322.373V320.141C122.283 319.684 125.395 316.906 125.395 312.424C125.395 308.627 123.18 306.289 118.662 305.322L116.781 304.936V298.678C118.627 298.941 119.945 300.26 119.998 301.859H124.902C124.832 297.799 121.668 294.934 116.781 294.477V292.086H114.32V294.477C109.082 294.898 105.988 297.676 105.988 302C105.988 305.674 108.256 308.1 112.475 309.084L114.32 309.523V316.062C112.123 315.834 110.629 314.533 110.506 312.793H105.479C105.496 317.082 108.818 319.859 114.32 320.176V322.373H116.781ZM120.402 313.021C120.402 314.797 119.066 315.939 116.781 316.08V309.963C119.242 310.42 120.402 311.404 120.402 313.021ZM111.086 301.508C111.086 299.943 112.422 298.766 114.32 298.66V304.426C112.193 304.004 111.086 302.984 111.086 301.508Z" fill="white"/>
<path d="M157.523 318H164.273V312.094H168.703V306.211H164.273V284.18H154.359C148.43 293.109 144.023 300.094 140.977 305.836V312.094H157.523V318ZM147.328 306.047C151.195 299.039 154.219 294.305 157.312 289.688H157.688V306.422H147.328V306.047ZM176.273 318H183.68L197.812 290.062V284.156H173.625V289.992H190.688V290.414L176.273 318ZM202.43 327.164L206.695 312.516H200.016L197.859 327.164H202.43ZM229.758 318H236.508V312.094H240.938V306.211H236.508V284.18H226.594C220.664 293.109 216.258 300.094 213.211 305.836V312.094H229.758V318ZM219.562 306.047C223.43 299.039 226.453 294.305 229.547 289.688H229.922V306.422H219.562V306.047ZM254.578 318H261.656V284.18H254.602L245.859 290.203V296.789L254.156 291.07H254.578V318ZM272.555 318H279.961L294.094 290.062V284.156H269.906V289.992H286.969V290.414L272.555 318Z" fill="white"/>
<g filter="url(#filter0_dddd_11_208)">
<path d="M70.811 90.8401H62.55V102.265H70.811V90.8401Z" fill="white"/>
<path d="M70.811 77.735H62.55V89.84H70.811V77.735Z" fill="white"/>
<path d="M52.8425 76.735H61.45V60H45.5C42.464 60 40 62.24 40 65V66.81L52.8425 76.735Z" fill="white"/>
<path d="M71.9109 77.465V89.84H83.9999V68.125L71.9109 77.465Z" fill="white"/>
<path d="M71.9109 102.535L83.9999 111.875V90.8401H71.9109V102.535Z" fill="white"/>
<path d="M62.5501 76.735H71.1576L84.0001 66.81V65C84.0001 62.24 81.5361 60 78.5001 60H62.5501V76.735Z" fill="white"/>
<path d="M61.45 103.265H52.8425L40 113.19V115C40 117.76 42.464 120 45.5 120H61.45V103.265Z" fill="white"/>
<path d="M71.1575 103.265H62.55V120H78.5C81.536 120 84 117.76 84 115V113.19L71.1575 103.265Z" fill="white"/>
<path d="M52.089 102.535V90.8401H40V111.875L52.089 102.535Z" fill="white"/>
<path d="M61.4498 77.735H53.1888V89.84H61.4498V77.735Z" fill="white"/>
<path d="M61.4498 90.8401H53.1888V102.265H61.4498V90.8401Z" fill="white"/>
<path d="M52.089 77.465L40 68.125V89.84H52.089V77.465Z" fill="white"/>
</g>
</g>
<rect x="0.5" y="0.5" width="399" height="621" rx="39.5" stroke="black"/>
<defs>
<filter id="filter0_dddd_11_208" x="36" y="60" width="52.0001" height="68.0001" filterUnits="userSpaceOnUse" color-interpolation-filters="sRGB">
<feFlood flood-opacity="0" result="BackgroundImageFix"/>
<feColorMatrix in="SourceAlpha" type="matrix" values="0 0 0 0 0 0 0 0 0 0 0 0 0 0 0 0 0 0 127 0" result="hardAlpha"/>
<feOffset dy="4"/>
<feGaussianBlur stdDeviation="2"/>
<feComposite in2="hardAlpha" operator="out"/>
<feColorMatrix type="matrix" values="0 0 0 0 0 0 0 0 0 0 0 0 0 0 0 0 0 0 0.25 0"/>
<feBlend mode="normal" in2="BackgroundImageFix" result="effect1_dropShadow_11_208"/>
<feColorMatrix in="SourceAlpha" type="matrix" values="0 0 0 0 0 0 0 0 0 0 0 0 0 0 0 0 0 0 127 0" result="hardAlpha"/>
<feOffset dy="4"/>
<feGaussianBlur stdDeviation="2"/>
<feComposite in2="hardAlpha" operator="out"/>
<feColorMatrix type="matrix" values="0 0 0 0 0 0 0 0 0 0 0 0 0 0 0 0 0 0 0.25 0"/>
<feBlend mode="normal" in2="effect1_dropShadow_11_208" result="effect2_dropShadow_11_208"/>
<feColorMatrix in="SourceAlpha" type="matrix" values="0 0 0 0 0 0 0 0 0 0 0 0 0 0 0 0 0 0 127 0" result="hardAlpha"/>
<feOffset dy="4"/>
<feGaussianBlur stdDeviation="2"/>
<feComposite in2="hardAlpha" operator="out"/>
<feColorMatrix type="matrix" values="0 0 0 0 0 0 0 0 0 0 0 0 0 0 0 0 0 0 0.25 0"/>
<feBlend mode="normal" in2="effect2_dropShadow_11_208" result="effect3_dropShadow_11_208"/>
<feColorMatrix in="SourceAlpha" type="matrix" values="0 0 0 0 0 0 0 0 0 0 0 0 0 0 0 0 0 0 127 0" result="hardAlpha"/>
<feOffset dy="4"/>
<feGaussianBlur stdDeviation="2"/>
<feComposite in2="hardAlpha" operator="out"/>
<feColorMatrix type="matrix" values="0 0 0 0 0 0 0 0 0 0 0 0 0 0 0 0 0 0 0.25 0"/>
<feBlend mode="normal" in2="effect3_dropShadow_11_208" result="effect4_dropShadow_11_208"/>
<feBlend mode="normal" in="SourceGraphic" in2="effect4_dropShadow_11_208" result="shape"/>
</filter>
<clipPath id="clip0_11_208">
<rect width="400" height="622" rx="40" fill="white"/>
</clipPath>
</defs>
</svg>
