<svg width="48" height="48" viewBox="0 0 48 48" fill="none" xmlns="http://www.w3.org/2000/svg">
<path d="M30 4H4V30H30V4Z" fill="#B5C5C3"/>
<path d="M21 9C12.72 9 6 15.27 6 23C6 26.21 7.17 29.16 9.11 31.52L6 36.5L12.9 34.77C15.24 36.18 18.02 37 21 37C29.28 37 36 30.73 36 23C36 15.27 29.28 9 21 9Z" fill="#33404F"/>
<path d="M44 30C44 24.62 40.75 19.96 35.99 17.62C36.68 19.29 37.07 21.1 37.07 23C37.07 31.28 29.87 38 21 38C19.34 38 17.74 37.76 16.23 37.32C18.87 41.32 23.59 44 29 44C31.98 44 34.76 43.18 37.1 41.77L44 43.5L40.89 38.52C42.83 36.16 44 33.21 44 30Z" fill="#33404F"/>
<path d="M24.28 22.45L22.76 24.06C22.38 24.47 22.17 24.89 22.17 25.38V26.54H19.45V25.14C19.45 24.49 19.78 23.88 20.25 23.39L21.76 21.78C22.33 21.19 22.43 20.68 22.43 19.89C22.43 19.18 22.33 18.69 21.92 18.32C21.64 18.08 21.3 17.93 20.82 17.93C20.36 17.93 20 18.05 19.72 18.3C19.26 18.71 19.23 19.32 19.23 19.89H16.5C16.5 18.67 16.81 17.63 17.71 16.96C18.43 16.43 19.41 16 20.79 16C22.15 16 23.2 16.33 23.92 16.92C24.82 17.63 25.15 18.53 25.15 19.95C25.15 21.07 24.9 21.8 24.28 22.45ZM19.22 30.61V28.11H22.4V30.61H19.22Z" fill="white"/>
</svg>
